<svg role="img" viewBox="0 0 24 24" xmlns="http://www.w3.org/2000/svg"><title>Email</title><path fill="#5F6368" d="M2.25 4.5A2.25 2.25 0 0 0 0 6.75v10.5a2.25 2.25 0 0 0 2.25 2.25h19.5A2.25 2.25 0 0 0 24 17.25V6.75a2.25 2.25 0 0 0-2.25-2.25H2.25Zm0 1.5h19.5c.063 0 .124.008.183.022L12 12.36 2.067 6.022A.75.75 0 0 1 2.25 6ZM1.5 7.32l6.7 4.276L1.5 16.06V7.32Zm21 0v8.74l-6.7-4.464L22.5 7.32ZM9.586 12.41l2.01 1.283a.75.75 0 0 0 .808 0l2.01-1.283 6.79 4.524a.75.75 0 0 1-.204.029H2.25a.75.75 0 0 1-.204-.029l6.79-4.524Z"/></svg>
